# xmcd CD database file
#
# Track frame offsets:
#	150
#	17330
#	38439
#	58791
#	77339
#	99918
#	116865
#
# Disc length: 1817 seconds
#
# Revision: 0
# Processed by: cddbd v1.5.1PL0 Copyright (c) Steve Scherf et al.
# Submitted via: CDex 1.51
#
DISCID=43071707
DTITLE=Glasmost - Pungo-Groove
DYEAR=1900
DGENRE=Pungo Groove
TTITLE0=Stand Up
TTITLE1=Where are you
TTITLE2=Jah will come
TTITLE3=Morena tropicana
TTITLE4=Day on the Beach
TTITLE5=Baby, are you ready
TTITLE6=Cubana chica
EXTD=
EXTT0=
EXTT1=
EXTT2=
EXTT3=
EXTT4=
EXTT5=
EXTT6=
PLAYORDER=
